<?xml version="1.0" standalone="no"?>
<!DOCTYPE svg PUBLIC "-//W3C//DTD SVG 20010904//EN"
 "http://www.w3.org/TR/2001/REC-SVG-20010904/DTD/svg10.dtd">
<svg version="1.0" xmlns="http://www.w3.org/2000/svg"
 width="1312.000000pt" height="1312.000000pt" viewBox="0 0 1312.000000 1312.000000"
 preserveAspectRatio="xMidYMid meet">
<metadata>
Created by potrace 1.11, written by Peter Selinger 2001-2013
</metadata>
<g transform="translate(0.000000,1312.000000) scale(0.100000,-0.100000)"
fill="#000000" stroke="none">
<path d="M2362 12705 c4 -4 3 -17 -1 -29 -5 -11 -5 -30 -1 -41 4 -11 3 -28 -2
-37 -5 -11 -5 -18 1 -18 5 0 6 -14 1 -34 -4 -19 -4 -40 1 -47 4 -7 4 -20 -1
-30 -5 -9 -7 -19 -4 -22 9 -8 10 -69 3 -98 -4 -15 -3 -32 1 -40 5 -7 4 -21 -1
-31 -6 -11 -6 -18 0 -18 5 0 6 -14 1 -34 -4 -19 -4 -40 1 -47 4 -7 4 -20 -1
-30 -5 -9 -7 -19 -4 -22 9 -8 10 -69 3 -98 -4 -15 -3 -32 1 -40 5 -7 4 -21 -1
-31 -6 -11 -6 -18 0 -18 5 0 6 -14 1 -34 -4 -19 -4 -40 1 -47 4 -7 4 -20 -1
-30 -5 -9 -7 -19 -4 -22 9 -8 10 -69 3 -98 -4 -15 -3 -32 1 -40 5 -7 4 -21 -1
-31 -6 -11 -6 -18 0 -18 5 0 6 -14 1 -34 -4 -19 -4 -40 1 -47 4 -7 4 -20 -1
-30 -5 -9 -7 -19 -4 -22 9 -8 10 -69 3 -98 -4 -15 -3 -32 1 -40 5 -7 4 -21 -1
-31 -6 -11 -6 -18 0 -18 5 0 6 -14 1 -34 -4 -19 -4 -40 1 -47 4 -7 4 -20 -1
-30 -5 -9 -7 -19 -4 -22 9 -8 10 -69 3 -98 -4 -15 -3 -32 1 -40 5 -7 4 -21 -1
-31 -6 -11 -6 -18 0 -18 5 0 6 -14 1 -34 -4 -19 -4 -40 0 -46 4 -7 4 -25 0
-40 -4 -15 -4 -34 1 -41 5 -8 7 -21 4 -29 -6 -21 -7 -69 -2 -103 2 -15 0 -30
-5 -33 -4 -3 -5 -10 -2 -16 4 -6 8 -214 10 -462 4 -520 8 -658 18 -674 3 -6 2
-13 -4 -17 -6 -4 -8 -11 -4 -16 3 -5 8 -53 10 -107 3 -53 7 -113 9 -132 3 -19
7 -57 9 -85 7 -78 32 -182 50 -210 26 -39 51 -33 132 34 85 70 118 98 137 114
26 22 169 152 212 192 165 153 230 214 319 300 57 55 190 183 296 285 107 102
466 458 799 791 527 526 706 708 1071 1089 119 124 314 331 366 389 27 29 67
73 89 97 22 23 49 53 59 66 19 22 134 158 160 188 40 48 66 90 66 108 0 23
-37 48 -86 57 -16 2 -40 7 -54 10 -84 18 -223 29 -510 41 -212 9 -3156 17
-3148 9z m2853 -304 c5 -3 52 -6 105 -7 150 -2 240 -8 240 -15 0 -13 -412
-430 -1642 -1663 l-1257 -1261 0 1479 -1 1478 1273 -3 c699 -1 1276 -5 1282
-8z"/>
<path d="M7029 12665 c-55 -44 -106 -92 -357 -333 -543 -520 -906 -877 -2206
-2174 -1814 -1809 -2101 -2096 -2101 -2107 0 -5 -3 -12 -7 -16 -3 -4 -3 -19 2
-34 4 -15 3 -35 -2 -44 -5 -11 -5 -17 0 -17 6 0 7 -14 2 -34 -4 -19 -5 -37 -2
-41 7 -7 5 -112 -2 -124 -4 -5 -3 -12 2 -15 6 -4 8 -56 2 -63 -7 -8 -5 -30 2
-40 5 -6 5 -14 -2 -18 -6 -4 -7 -13 -2 -23 7 -14 8 -71 2 -79 -7 -8 -5 -30 2
-40 5 -6 5 -14 -2 -18 -6 -3 -7 -12 -3 -18 8 -13 7 -153 -2 -166 -3 -5 -1 -12
4 -15 5 -3 6 -21 1 -40 -4 -19 -6 -37 -3 -40 8 -8 9 -69 2 -97 -4 -15 -3 -32
1 -40 5 -7 4 -21 -1 -31 -6 -11 -6 -18 0 -18 5 0 6 -14 1 -34 -4 -19 -5 -37
-2 -41 5 -5 6 -97 2 -120 -1 -6 -1 -14 0 -20 4 -19 1 -105 -4 -113 -2 -4 -1
-14 4 -22 5 -8 5 -22 -1 -32 -5 -10 -6 -18 -1 -18 4 0 7 -12 6 -27 -5 -55 -5
-78 -1 -105 2 -16 1 -28 -4 -28 -5 0 -6 -6 -4 -12 11 -31 12 -88 1 -88 -7 0
-7 -3 -1 -8 6 -4 11 -94 11 -227 2 -287 18 -760 29 -850 2 -16 6 -55 9 -85 6
-58 10 -77 21 -123 l7 -27 38 28 c57 42 92 74 539 500 393 376 1214 1189 2844
2817 l1312 1310 0 1030 c0 567 -3 1052 -6 1078 -3 26 -2 50 3 53 5 3 5 10 2
16 -4 6 -8 58 -10 117 -5 196 -15 415 -20 476 -3 33 -7 83 -9 110 -2 28 -6 64
-9 80 -4 17 -9 42 -12 57 -3 15 -9 30 -13 32 -4 3 -32 -15 -62 -39z m-213
-728 c1 -34 5 -165 9 -292 3 -126 8 -288 10 -360 2 -71 6 -229 10 -350 3 -121
8 -276 10 -345 2 -69 7 -233 11 -365 3 -132 7 -266 8 -298 l2 -58 -2103 -2102
c-1157 -1156 -2105 -2104 -2108 -2106 -2 -1 -4 491 -4 1095 l0 1099 61 63 c33
34 61 62 62 62 6 0 356 355 356 361 0 4 5 9 10 11 14 4 470 460 470 469 0 4 5
9 10 11 15 5 910 900 910 910 0 4 4 8 8 8 7 0 232 219 232 227 0 4 39 43 43
43 7 0 357 354 357 362 0 4 4 8 8 8 11 0 262 251 262 262 0 4 6 8 13 8 6 1 26
19 42 40 17 21 33 39 36 40 3 0 289 283 635 630 346 346 631 630 634 630 3 0
6 -28 6 -63z"/>
<path d="M7469 12703 c-1 -5 -2 -737 -3 -1628 l-2 -1620 -2552 -2551 c-2459
-2458 -2553 -2553 -2550 -2586 1 -18 -2 -39 -6 -46 -4 -7 -3 -12 2 -12 6 0 7
-14 2 -34 -4 -19 -4 -40 1 -47 4 -7 4 -20 -1 -30 -5 -9 -7 -19 -4 -22 9 -8 10
-69 3 -98 -4 -15 -3 -32 1 -40 5 -7 4 -21 -1 -31 -6 -11 -6 -18 0 -18 5 0 6
-14 1 -34 -4 -19 -4 -40 1 -47 4 -7 4 -20 -1 -30 -5 -9 -7 -19 -4 -22 9 -8 10
-69 3 -98 -4 -15 -3 -32 1 -40 5 -7 4 -21 -1 -31 -6 -11 -6 -18 0 -18 5 0 6
-14 1 -34 -4 -19 -4 -40 1 -47 4 -7 4 -20 -1 -30 -5 -9 -7 -19 -4 -22 9 -8 10
-69 3 -98 -4 -15 -3 -32 1 -40 5 -7 4 -21 -1 -31 -6 -11 -6 -18 0 -18 5 0 6
-14 1 -34 -4 -19 -4 -40 1 -47 4 -7 4 -20 -1 -30 -5 -9 -7 -19 -4 -22 9 -8 10
-69 3 -98 -4 -15 -3 -32 1 -40 5 -7 4 -21 -1 -31 -6 -11 -6 -18 0 -18 5 0 6
-14 1 -34 -4 -18 -3 -41 2 -50 6 -11 6 -21 0 -29 -13 -15 -13 -29 -1 -44 7 -7
6 -14 -1 -18 -6 -4 -7 -13 -2 -23 7 -14 8 -71 2 -79 -7 -8 -5 -30 2 -40 5 -6
5 -14 -2 -18 -6 -3 -7 -12 -3 -18 8 -13 7 -153 -2 -166 -3 -5 -1 -12 4 -15 5
-3 6 -21 1 -40 -4 -19 -6 -37 -3 -40 8 -8 9 -69 2 -97 -4 -15 -3 -32 1 -40 5
-7 4 -21 -1 -31 -6 -11 -6 -18 0 -18 5 0 6 -14 1 -34 -4 -19 -5 -37 -2 -41 7
-7 5 -112 -2 -124 -4 -5 -3 -12 2 -15 6 -4 8 -56 2 -63 -7 -8 -5 -30 2 -40 5
-6 5 -14 -2 -18 -6 -4 -7 -13 -2 -23 7 -14 8 -71 2 -79 -7 -8 -5 -30 2 -40 5
-6 5 -14 -2 -18 -6 -3 -7 -12 -3 -18 8 -13 7 -153 -2 -166 -3 -5 -1 -12 4 -15
5 -3 6 -21 1 -40 -4 -19 -6 -37 -3 -40 8 -8 9 -69 2 -97 -4 -15 -3 -32 1 -40
5 -7 4 -21 -1 -31 -6 -11 -6 -18 0 -18 5 0 6 -14 1 -34 -4 -19 -5 -37 -2 -41
5 -5 6 -97 2 -120 -1 -6 -1 -14 0 -20 4 -19 1 -105 -4 -113 -2 -4 -1 -14 4
-22 5 -8 5 -22 -1 -32 -7 -12 -6 -18 1 -18 6 0 9 -4 6 -9 -6 -8 81 -21 89 -12
7 6 275 6 275 -1 0 -3 11 -3 25 0 13 4 59 5 101 2 41 -3 77 -3 79 -1 3 2 54 3
115 2 117 -1 118 -1 183 -1 23 0 71 0 107 0 36 -1 67 -1 70 0 22 5 280 3 280
-2 0 -4 6 -5 14 -2 23 9 256 10 256 1 0 -5 4 -6 10 -2 8 5 104 9 125 5 6 -1
26 -1 45 0 93 5 140 4 140 -3 0 -5 4 -6 10 -2 8 5 103 9 125 5 6 -1 30 -1 55
0 115 5 180 4 180 -2 0 -3 11 -3 25 0 13 4 59 5 101 2 41 -3 77 -3 79 -1 3 2
54 3 115 2 117 -1 118 -1 183 -1 23 0 71 0 107 0 36 -1 70 -1 75 0 6 1 59 2
120 3 l109 2 1 1625 0 1625 2553 2551 2552 2551 0 1777 0 1776 -1600 0 c-880
0 -1601 -3 -1601 -7z m2901 -1819 l0 -1526 -2553 -2552 -2553 -2553 1 -1559
c0 -857 -1 -1566 -3 -1575 -3 -16 -106 -17 -1302 -17 l-1299 -1 0 1526 0 1526
2552 2551 2552 2551 2 1570 c0 864 2 1573 2 1578 1 4 586 7 1301 7 l1300 0 0
-1526z"/>
<path d="M10564 8487 c-17 -12 -38 -29 -47 -37 -9 -8 -53 -49 -98 -90 -45 -41
-112 -104 -149 -140 -38 -36 -141 -135 -230 -220 -431 -412 -1250 -1223 -2785
-2758 l-1391 -1389 2 -1049 c3 -1114 6 -1345 28 -1694 5 -70 16 -191 20 -212
14 -70 19 -89 26 -93 13 -8 98 67 405 360 483 460 978 949 2643 2610 l1684
1680 -5 1110 c-5 1257 -12 1535 -42 1793 -5 47 -25 152 -28 152 -1 -1 -16 -11
-33 -23z m-245 -714 c0 -17 2 -91 15 -548 3 -99 8 -263 11 -365 8 -274 14
-492 20 -705 3 -104 7 -258 10 -340 l4 -151 -315 -314 c-173 -173 -314 -318
-314 -322 0 -4 -4 -8 -8 -8 -4 0 -809 -801 -1788 -1780 -978 -979 -1781 -1780
-1784 -1780 -3 0 -5 493 -5 1096 l0 1097 2069 2068 c1138 1138 2073 2069 2077
2069 4 0 8 -8 8 -17z"/>
<path d="M10498 4581 c-52 -39 -116 -90 -158 -127 -19 -17 -52 -47 -74 -65
-103 -91 -363 -332 -531 -494 -28 -27 -139 -133 -245 -235 -224 -214 -1309
-1297 -1545 -1541 -88 -92 -221 -230 -295 -309 -74 -78 -164 -173 -200 -210
-36 -37 -101 -108 -145 -156 -44 -48 -91 -99 -105 -114 -14 -14 -56 -62 -95
-106 -38 -43 -74 -84 -80 -90 -5 -6 -21 -25 -35 -43 -14 -18 -32 -40 -41 -49
-34 -35 -79 -106 -79 -124 0 -23 67 -55 131 -63 24 -3 55 -7 69 -9 172 -25
489 -36 1101 -40 245 -2 451 -6 457 -10 6 -3 13 -3 15 2 3 4 23 6 44 5 45 -3
154 -5 168 -3 13 2 130 1 141 -1 5 -1 12 -1 17 0 4 1 57 2 117 1 119 0 120 0
183 0 23 0 71 0 107 0 36 -1 70 -1 75 0 13 2 130 1 141 -1 5 -1 12 -1 17 0 4
1 57 2 117 1 119 0 120 0 183 0 23 0 71 0 107 0 36 -1 70 -1 75 0 13 2 130 1
141 -1 5 -1 12 -1 17 0 4 1 57 2 117 1 61 0 116 0 123 0 6 0 33 0 58 1 25 1
51 -1 57 -5 7 -4 15 -1 18 8 6 15 -2 2831 -8 3108 -2 71 -5 128 -8 128 -3 0
-5 41 -5 90 0 50 -2 90 -5 90 -3 0 -5 10 -5 23 3 55 -19 221 -37 275 -12 38
-38 92 -38 78 0 -5 -6 -4 -13 2 -9 8 -22 3 -49 -17z m-152 -618 c11 -91 17
-485 21 -1604 l5 -1257 -1478 0 -1479 0 1246 1241 c1315 1312 1669 1660 1677
1652 3 -2 6 -17 8 -32z"/>
</g>
</svg>
